<?xml version="1.0" encoding="UTF-8" standalone="no"?>
<!-- Generator: Adobe Illustrator 27.6.1, SVG Export Plug-In . SVG Version: 6.00 Build 0)  -->

<svg
   version="1.1"
   id="Layer_1"
   x="0px"
   y="0px"
   viewBox="0 0 163.5 294.2"
   style="enable-background:new 0 0 163.5 294.2;"
   xml:space="preserve"
   sodipodi:docname="logo-light-blue.svg"
   inkscape:version="1.2.2 (b0a8486541, 2022-12-01)"
   xmlns:inkscape="http://www.inkscape.org/namespaces/inkscape"
   xmlns:sodipodi="http://sodipodi.sourceforge.net/DTD/sodipodi-0.dtd"
   xmlns="http://www.w3.org/2000/svg"
   xmlns:svg="http://www.w3.org/2000/svg"><defs
   id="defs23" /><sodipodi:namedview
   id="namedview21"
   pagecolor="#505050"
   bordercolor="#ffffff"
   borderopacity="1"
   inkscape:showpageshadow="0"
   inkscape:pageopacity="0"
   inkscape:pagecheckerboard="1"
   inkscape:deskcolor="#505050"
   showgrid="false"
   inkscape:zoom="0.80217536"
   inkscape:cx="81.652969"
   inkscape:cy="147.10001"
   inkscape:window-width="1536"
   inkscape:window-height="951"
   inkscape:window-x="0"
   inkscape:window-y="0"
   inkscape:window-maximized="1"
   inkscape:current-layer="Layer_1" />
<path
   d="M149.7,0c-3.2,5-7,9.8-11.4,14.5c-9.6,10.2-21.1,19-33.2,27.3c-4.6-3-9.2-6-13.8-9c-0.2-0.1-0.3-0.2-0.5-0.3  c15.1-10,29.1-20.2,39.4-32.5H149.7z"
   id="path2"
   style="fill:#77d9dd;fill-opacity:1" />
<path
   d="M154.8,294.2h-18c-10.5-16.4-27.5-29.1-46.1-41.4c-4.2-2.8-8.5-5.5-12.8-8.3l0,0c0,0-0.3-0.2-0.4-0.3  c-1.7-1.1-3.4-2.2-5.2-3.3c-0.6-0.4-1.2-0.8-1.8-1.1c-1-0.7-2-1.3-3-2c-0.6-0.4-1.2-0.8-1.8-1.2c-0.6-0.4-1.2-0.8-1.8-1.2l-2-1.4  c-13.3-8.9-26.2-18.4-36.6-29.6C8.2,186.2,0,166.1,0,142.7S8.2,99.1,25.2,81c9.5-10.2,21.1-19,33.2-27.3c4.6,3,9.2,6,13.8,9  c0.2,0.1,0.3,0.2,0.5,0.3c-30.8,20.4-57,41.9-57,79.8s26.3,59.4,57.2,79.8c4.2,2.8,8.5,5.5,12.8,8.3l0,0c0,0,0.3,0.2,0.4,0.3  c1.1,0.7,2.3,1.5,3.4,2.2c1.1,0.7,2.2,1.4,3.4,2.2c2.3,1.5,4.6,3,6.8,4.5l2,1.4c13.3,8.9,26.2,18.4,36.6,29.6  C145.2,278.3,150.7,286,154.8,294.2L154.8,294.2L154.8,294.2z"
   id="path4"
   style="fill:#77d9dd;fill-opacity:1" />
<path
   d="M76.7,82.8l0-2.1v-8.4L76,75.1V78c0,0-0.7,0-0.7,1.2s0.7,1.2,0.7,1.2l-0.7,2.9l-0.7,1.2v1.2c0,0-1.9,1.2-1.9,3.5  c0,1.9-0.1,4.3-0.1,5.2c0,0.2-0.2,0.3-0.4,0.3h-0.9l-1.9,2h0.8c0.3,0,0.5,0.2,0.5,0.5v9.4c0,0-1.9,0-2.6,1.2v1.7c0,0-0.7,0-0.7,0.6  s0.7,0.6,0.7,0.6v1.2c0,0-21.3,7-22.6,24.4c0,0-1.3,0.6-1.3,1.2v11.6l-9.3,2v32.5l5.5,4.3c0,0,25.9,20.7,40.7,29.6l2.3,1.4  c0.7,0.4,1.3,0.8,2,1.2s1.3,0.8,2,1.2c1.1,0.7,2.2,1.3,3.4,2c0.7,0.4,1.3,0.8,1.9,1.1c1.9,1.1,3.9,2.2,5.8,3.3  c0.1,0.1,0.5,0.3,0.5,0.3l16.6-9c-1.2-0.7-2.5-1.4-3.7-2.2c-1.3-0.7-2.6-1.5-3.8-2.2c-0.1-0.1-0.5-0.3-0.5-0.3l0,0  c-4.8-2.8-9.5-5.5-14.2-8.3c-11.5-6.9-22.5-13.8-32-21.5c-2.4-1.9-4.6-3.9-6.8-5.9l0.1-22.2c1.9-0.6,10.2-9,10.2-9  c0-8.4,0-12.6,0-13.3c0.2-5.4,1.3-17.4,9-23.2V95.1l0.5-1.1h0.7l0.1-5.6c0,0,0-2.3,0.7-2.9v-1.7"
   id="path6"
   style="fill:#77d9dd;fill-opacity:1" />
<path
   d="M143.9,89.1h-64c0.1-2.7-1.6-3.6-1.6-3.6v-1.2l-0.6-1.2l-0.6-2.9c0,0,0.6,0,0.6-1.2S77.2,78,77.2,78v-2.9l-0.2-1.7l51-0.6  c4.3,3.7,7.5,7.3,10.4,10.5C140.3,85.4,142.2,87,143.9,89.1L143.9,89.1L143.9,89.1z"
   id="path8"
   style="fill:#77d9dd;fill-opacity:1" />
<path
   d="M162.6,130.7h-58.8c-1.8-7.3-6.8-12.4-11.4-15.7h66.4C160.6,120.1,161.8,125.3,162.6,130.7L162.6,130.7L162.6,130.7z"
   id="path10"
   style="fill:#77d9dd;fill-opacity:1" />
<path
   d="M160.9,157.2c-0.8,5.4-2,10.6-3.7,15.7H114v-15.7H160.9z"
   id="path12"
   style="fill:#77d9dd;fill-opacity:1" />
<path
   d="M133.1,199.4c-0.9,2.1-1.8,4.1-2.7,6.1c-1.6,3.3-3.2,6.5-5,9.5H118v-15.7L133.1,199.4L133.1,199.4L133.1,199.4z"
   id="path14"
   style="fill:#77d9dd;fill-opacity:1" />
<path
   d="M72.7,252.8c-18.5,12.3-35.4,25-45.9,41.4h-18c4.1-8.2,9.5-15.9,16.5-23.3c9.5-10.2,21.1-19.1,33.2-27.3  c4.6,3,9.2,6,13.8,8.9C72.4,252.6,72.5,252.7,72.7,252.8L72.7,252.8z"
   id="path16"
   style="fill:#77d9dd;fill-opacity:1" />
<path
   d="M163.5,142.7c0,4.6-0.3,9.1-1,13.4c-0.8,5.4-2.1,10.6-3.9,15.7c-3.3,9.3-8.3,18.1-15,26.5c-1.7,2.1-3.5,4.1-5.4,6.1  c-3.1,3.3-6.4,6.5-9.8,9.5c-7.2,6.4-15.2,12.2-23.4,17.8c-4.6-3-9.2-6-13.8-8.9c-0.2-0.1-0.3-0.2-0.5-0.3c4.2-2.8,8.4-5.6,12.4-8.5  c6.9-5,13.4-10.1,19.2-15.7c8.2-7.9,14.9-16.5,19.4-26.5c2.2-4.9,3.8-10.1,4.9-15.7c0.8-4.2,1.2-8.7,1.2-13.4s-0.4-9-1.1-13.1  c-1-5.6-2.6-10.8-4.8-15.7c-4.4-10-11.1-18.6-19.3-26.5c-5.7-5.5-12.2-10.7-19-15.7c-8.2-6-17.1-11.7-26.1-17.4  C59,42.4,39.7,30,25.2,14.5C20.8,9.8,17,5,13.8,0h19.5C46.6,15.9,66,28.3,86,41.1c14.8,9.5,29.9,19.2,42.8,30.6  c3.3,2.9,6.5,6,9.5,9.2c2,2.1,3.8,4.3,5.6,6.4c6.7,8.4,11.7,17.2,14.9,26.5c1.8,5.1,3,10.3,3.8,15.7  C163.2,133.8,163.5,138.2,163.5,142.7L163.5,142.7L163.5,142.7z"
   id="path18"
   style="fill:#77d9dd;fill-opacity:1" />
</svg>
