<?xml version="1.0" encoding="UTF-8" standalone="no"?>
<!-- Generator: Adobe Illustrator 27.6.1, SVG Export Plug-In . SVG Version: 6.00 Build 0)  -->

<svg
   version="1.1"
   id="Layer_1"
   x="0px"
   y="0px"
   viewBox="0 0 294 293.99999"
   xml:space="preserve"
   sodipodi:docname="logo-light-blue-square-filled-nopadding.svg"
   inkscape:version="1.2.2 (b0a8486541, 2022-12-01)"
   width="294"
   height="294"
   xmlns:inkscape="http://www.inkscape.org/namespaces/inkscape"
   xmlns:sodipodi="http://sodipodi.sourceforge.net/DTD/sodipodi-0.dtd"
   xmlns="http://www.w3.org/2000/svg"
   xmlns:svg="http://www.w3.org/2000/svg"><defs
   id="defs23" /><sodipodi:namedview
   id="namedview21"
   pagecolor="#505050"
   bordercolor="#ffffff"
   borderopacity="1"
   inkscape:showpageshadow="0"
   inkscape:pageopacity="0"
   inkscape:pagecheckerboard="1"
   inkscape:deskcolor="#505050"
   showgrid="false"
   inkscape:zoom="2.2688945"
   inkscape:cx="117.00024"
   inkscape:cy="140.89753"
   inkscape:window-width="1536"
   inkscape:window-height="951"
   inkscape:window-x="0"
   inkscape:window-y="0"
   inkscape:window-maximized="1"
   inkscape:current-layer="Layer_1"
   inkscape:rotation="-1" />









<rect
   style="fill:#0a1628"
   id="rect737"
   width="326.10867"
   height="317.39221"
   x="-13.054337"
   y="-8.696106"
   inkscape:label="rect737" /><path
   d="m 214.95,-0.1 c -3.2,5 -7,9.8 -11.4,14.5 -9.6,10.2 -21.1,19 -33.2,27.3 -4.6,-3 -9.2,-6 -13.8,-9 -0.2,-0.1 -0.3,-0.2 -0.5,-0.3 15.1,-10 29.1,-20.2 39.4,-32.5 z"
   id="path2"
   style="fill:#77d9dd;fill-opacity:1" /><path
   d="m 220.05,294.1 h -18 c -10.5,-16.4 -27.5,-29.1 -46.1,-41.4 -4.2,-2.8 -8.5,-5.5 -12.8,-8.3 v 0 c 0,0 -0.3,-0.2 -0.4,-0.3 -1.7,-1.1 -3.4,-2.2 -5.2,-3.3 -0.6,-0.4 -1.2,-0.8 -1.8,-1.1 -1,-0.7 -2,-1.3 -3,-2 -0.6,-0.4 -1.2,-0.8 -1.8,-1.2 -0.6,-0.4 -1.2,-0.8 -1.8,-1.2 l -2,-1.4 c -13.3,-8.9 -26.2,-18.4 -36.6,-29.6 -17.1,-18.2 -25.3,-38.3 -25.3,-61.7 0,-23.4 8.2,-43.6 25.2,-61.7 9.5,-10.2 21.1,-19 33.2,-27.3 4.6,3 9.2,6 13.8,9 0.2,0.1 0.3,0.2 0.5,0.3 -30.8,20.4 -57,41.9 -57,79.8 0,37.9 26.3,59.4 57.2,79.8 4.2,2.8 8.5,5.5 12.8,8.3 v 0 c 0,0 0.3,0.2 0.4,0.3 1.1,0.7 2.3,1.5 3.4,2.2 1.1,0.7 2.2,1.4 3.4,2.2 2.3,1.5 4.6,3 6.8,4.5 l 2,1.4 c 13.3,8.9 26.2,18.4 36.6,29.6 6.9,7.2 12.4,14.9 16.5,23.1 z"
   id="path4"
   style="fill:#77d9dd;fill-opacity:1" /><path
   d="m 141.95,82.7 v -2.1 -8.4 l -0.7,2.8 v 2.9 c 0,0 -0.7,0 -0.7,1.2 0,1.2 0.7,1.2 0.7,1.2 l -0.7,2.9 -0.7,1.2 v 1.2 c 0,0 -1.9,1.2 -1.9,3.5 0,1.9 -0.1,4.3 -0.1,5.2 0,0.2 -0.2,0.3 -0.4,0.3 h -0.9 l -1.9,2 h 0.8 c 0.3,0 0.5,0.2 0.5,0.5 v 9.4 c 0,0 -1.9,0 -2.6,1.2 v 1.7 c 0,0 -0.7,0 -0.7,0.6 0,0.6 0.7,0.6 0.7,0.6 v 1.2 c 0,0 -21.3,7 -22.6,24.4 0,0 -1.3,0.6 -1.3,1.2 V 149 l -9.3,2 v 32.5 l 5.5,4.3 c 0,0 25.9,20.7 40.7,29.6 l 2.3,1.4 c 0.7,0.4 1.3,0.8 2,1.2 0.7,0.4 1.3,0.8 2,1.2 1.1,0.7 2.2,1.3 3.4,2 0.7,0.4 1.3,0.8 1.9,1.1 1.9,1.1 3.9,2.2 5.8,3.3 0.1,0.1 0.5,0.3 0.5,0.3 l 16.6,-9 c -1.2,-0.7 -2.5,-1.4 -3.7,-2.2 -1.3,-0.7 -2.6,-1.5 -3.8,-2.2 -0.1,-0.1 -0.5,-0.3 -0.5,-0.3 v 0 c -4.8,-2.8 -9.5,-5.5 -14.2,-8.3 -11.5,-6.9 -22.5,-13.8 -32,-21.5 -2.4,-1.9 -4.6,-3.9 -6.8,-5.9 l 0.1,-22.2 c 1.9,-0.6 10.2,-9 10.2,-9 0,-8.4 0,-12.6 0,-13.3 0.2,-5.4 1.3,-17.4 9,-23.2 V 95 l 0.5,-1.1 h 0.7 l 0.1,-5.6 c 0,0 0,-2.3 0.7,-2.9 v -1.7"
   id="path6"
   style="fill:#77d9dd;fill-opacity:1" /><path
   d="m 209.15,89 h -64 c 0.1,-2.7 -1.6,-3.6 -1.6,-3.6 v -1.2 l -0.6,-1.2 -0.6,-2.9 c 0,0 0.6,0 0.6,-1.2 0,-1.2 -0.5,-1 -0.5,-1 V 75 l -0.2,-1.7 51,-0.6 c 4.3,3.7 7.5,7.3 10.4,10.5 1.9,2.1 3.8,3.7 5.5,5.8 z"
   id="path8"
   style="fill:#77d9dd;fill-opacity:1" /><path
   d="m 227.85,130.6 h -58.8 c -1.8,-7.3 -6.8,-12.4 -11.4,-15.7 h 66.4 c 1.8,5.1 3,10.3 3.8,15.7 z"
   id="path10"
   style="fill:#77d9dd;fill-opacity:1" /><path
   d="m 226.15,157.1 c -0.8,5.4 -2,10.6 -3.7,15.7 h -43.2 v -15.7 z"
   id="path12"
   style="fill:#77d9dd;fill-opacity:1" /><path
   d="m 198.35,199.3 c -0.9,2.1 -1.8,4.1 -2.7,6.1 -1.6,3.3 -3.2,6.5 -5,9.5 h -7.4 v -15.7 z"
   id="path14"
   style="fill:#77d9dd;fill-opacity:1" /><path
   d="m 137.95,252.7 c -18.5,12.3 -35.4,25 -45.9,41.4 h -18 c 4.1,-8.2 9.5,-15.9 16.5,-23.3 9.5,-10.2 21.1,-19.1 33.2,-27.3 4.6,3 9.2,6 13.8,8.9 0.1,0.1 0.2,0.2 0.4,0.3 z"
   id="path16"
   style="fill:#77d9dd;fill-opacity:1" /><path
   d="m 228.75,142.6 c 0,4.6 -0.3,9.1 -1,13.4 -0.8,5.4 -2.1,10.6 -3.9,15.7 -3.3,9.3 -8.3,18.1 -15,26.5 -1.7,2.1 -3.5,4.1 -5.4,6.1 -3.1,3.3 -6.4,6.5 -9.8,9.5 -7.2,6.4 -15.2,12.2 -23.4,17.8 -4.6,-3 -9.2,-6 -13.8,-8.9 -0.2,-0.1 -0.3,-0.2 -0.5,-0.3 4.2,-2.8 8.4,-5.6 12.4,-8.5 6.9,-5 13.4,-10.1 19.2,-15.7 8.2,-7.9 14.9,-16.5 19.4,-26.5 2.2,-4.9 3.8,-10.1 4.9,-15.7 0.8,-4.2 1.2,-8.7 1.2,-13.4 0,-4.7 -0.4,-9 -1.1,-13.1 -1,-5.6 -2.6,-10.8 -4.8,-15.7 -4.4,-10 -11.1,-18.6 -19.3,-26.5 -5.7,-5.5 -12.2,-10.7 -19,-15.7 -8.2,-6 -17.1,-11.7 -26.1,-17.4 -18.5,-11.9 -37.8,-24.3 -52.3,-39.8 -4.4,-4.7 -8.2,-9.5 -11.4,-14.5 h 19.5 c 13.3,15.9 32.7,28.3 52.7,41.1 14.8,9.5 29.9,19.2 42.8,30.6 3.3,2.9 6.5,6 9.5,9.2 2,2.1 3.8,4.3 5.6,6.4 6.7,8.4 11.7,17.2 14.9,26.5 1.8,5.1 3,10.3 3.8,15.7 0.6,4.3 0.9,8.7 0.9,13.2 z"
   id="path18"
   style="fill:#77d9dd;fill-opacity:1" /></svg>
