<?xml version="1.0" encoding="UTF-8"?>
<svg id="uuid-52a0e7d3-5ce8-4599-84f9-f3d7a361cb08" data-name="Layer 1" xmlns="http://www.w3.org/2000/svg" viewBox="0 0 1972 1080">
  <defs>
    <style>
      .uuid-5c4c9c97-d6b7-4e73-8eae-386c8f94aebf {
        fill: #77d9dd;
      }
    </style>
  </defs>
  <rect class="uuid-5c4c9c97-d6b7-4e73-8eae-386c8f94aebf" x="336" y="534" width="105" height="13"/>
  <rect class="uuid-5c4c9c97-d6b7-4e73-8eae-386c8f94aebf" x="262" y="575" width="13" height="55"/>
  <rect class="uuid-5c4c9c97-d6b7-4e73-8eae-386c8f94aebf" x="220" y="575" width="42" height="13"/>
  <rect class="uuid-5c4c9c97-d6b7-4e73-8eae-386c8f94aebf" x="336" y="613" width="105" height="14"/>
  <rect class="uuid-5c4c9c97-d6b7-4e73-8eae-386c8f94aebf" x="336" y="455" width="105" height="14"/>
  <polygon class="uuid-5c4c9c97-d6b7-4e73-8eae-386c8f94aebf" points="768 637 768 674 40 674 40 660 753.42 660 753.42 637 768 637"/>
  <polyline class="uuid-5c4c9c97-d6b7-4e73-8eae-386c8f94aebf" points="1932 660 1932 674 782 674 782 637 796 637 796 660 1932 660"/>
  <rect class="uuid-5c4c9c97-d6b7-4e73-8eae-386c8f94aebf" x="777" y="595" width="24" height="14" transform="translate(187 1391) rotate(-90)"/>
  <rect class="uuid-5c4c9c97-d6b7-4e73-8eae-386c8f94aebf" x="749" y="595" width="24" height="14" transform="translate(159 1363) rotate(-90)"/>
  <g>
    <path class="uuid-5c4c9c97-d6b7-4e73-8eae-386c8f94aebf" d="m768,633.73c-3.02-2.18-5-5.72-5-9.73s1.98-7.55,5-9.73v-15.31c-10.95,3.06-19,13.12-19,25.03s8.05,21.97,19,25.03v-15.31Z"/>
    <path class="uuid-5c4c9c97-d6b7-4e73-8eae-386c8f94aebf" d="m782,598.97v15.31c3.02,2.18,5,5.72,5,9.73s-1.98,7.55-5,9.73v15.31c10.95-3.06,19-13.12,19-25.03s-8.05-21.97-19-25.03Z"/>
  </g>
  <path class="uuid-5c4c9c97-d6b7-4e73-8eae-386c8f94aebf" d="m775,445c-41.91,0-76,34.09-76,76,0,39.55,30.36,72.12,69,75.66v-14.07c-30.9-3.49-55-29.77-55-61.59,0-34.19,27.81-62,62-62s62,27.81,62,62c0,31.82-24.1,58.1-55,61.59v14.07c38.64-3.55,69-36.12,69-75.66,0-41.91-34.09-76-76-76Z"/>
  <path class="uuid-5c4c9c97-d6b7-4e73-8eae-386c8f94aebf" d="m624,456v128.5c0,5.07.31,11.24.93,18.5h-.7c-2.48-4.37-4.81-8.16-6.98-11.36l-33.25-47.72v24.99l40.58,58.08h14.42v-171h-15Z"/>
  <path class="uuid-5c4c9c97-d6b7-4e73-8eae-386c8f94aebf" d="m562,537.91v-24.67l-40.43-57.24h-15.57v171h15v-135.08c0-6.37-.16-10.88-.47-13.52l7.02,10.72,34.45,48.79Z"/>
  <path class="uuid-5c4c9c97-d6b7-4e73-8eae-386c8f94aebf" d="m992.5,541.1c-4.88-4.82-10.72-7.62-17-7.62h-6v13.56h6c9.39,0,17,14.75,17,32.94s-7.61,32.94-17,32.94h-64v13.56h64c6.28,0,12.12-2.8,17-7.62,1.76-1.73,3.4-3.73,4.88-5.95,5.63-8.42,9.12-20.07,9.12-32.94s-3.49-24.52-9.12-32.94c-1.48-2.22-3.12-4.21-4.88-5.95Z"/>
  <path class="uuid-5c4c9c97-d6b7-4e73-8eae-386c8f94aebf" d="m942.5,455c-6.28,0-12.12,2.77-17,7.53-1.8,1.75-3.47,3.78-4.98,6.04-5.57,8.32-9.02,19.79-9.02,32.46s3.45,24.14,9.02,32.46c1.51,2.26,3.18,4.28,4.98,6.04,4.88,4.76,10.72,7.53,17,7.53h5v-13.56h-5c-9.39,0-17-14.53-17-32.46s7.61-32.46,17-32.46h64v-13.56h-64Z"/>
  <g>
    <polygon class="uuid-5c4c9c97-d6b7-4e73-8eae-386c8f94aebf" points="1322 532.69 1322 456 1337 456 1337 517.69 1322 532.69"/>
    <polygon class="uuid-5c4c9c97-d6b7-4e73-8eae-386c8f94aebf" points="1337 548.81 1337 627 1322 627 1322 563.81 1337 548.81"/>
  </g>
  <g>
    <polygon class="uuid-5c4c9c97-d6b7-4e73-8eae-386c8f94aebf" points="1855 456 1855 533 1782 533 1782 546 1855 546 1855 627 1870 627 1870 456 1855 456"/>
    <polygon class="uuid-5c4c9c97-d6b7-4e73-8eae-386c8f94aebf" points="1760 546 1760 533 1760 456 1745 456 1745 627 1760 627 1760 546"/>
  </g>
  <g>
    <polygon class="uuid-5c4c9c97-d6b7-4e73-8eae-386c8f94aebf" points="1459 469 1508 469 1508 455 1394 455 1394 469 1444 469 1459 469"/>
    <rect class="uuid-5c4c9c97-d6b7-4e73-8eae-386c8f94aebf" x="1444" y="491" width="15" height="136"/>
  </g>
  <g>
    <path class="uuid-5c4c9c97-d6b7-4e73-8eae-386c8f94aebf" d="m1601.91,607.26c-9.95-6.06-17.64-14.7-23.08-25.93-4.03-8.31-6.56-17.42-7.6-27.33h-15.66c1.06,12.68,4.26,24.25,9.63,34.73,6.68,13.05,16.12,23.17,28.32,30.36,12.2,7.19,26.07,10.78,41.61,10.78,16.39,0,31.35-3.03,44.87-9.09v-14.57c-12.74,6.76-27.2,10.14-43.36,10.14-13.21,0-24.79-3.03-34.73-9.09Z"/>
    <path class="uuid-5c4c9c97-d6b7-4e73-8eae-386c8f94aebf" d="m1641.07,452.48c-16.47,0-31.22,3.83-44.23,11.48-13.01,7.65-23.21,18.51-30.59,32.58-5.62,10.71-9.1,22.54-10.44,35.46h15.43c1.08-10.57,3.73-20.21,7.94-28.93,5.67-11.73,13.87-20.84,24.59-27.33,10.72-6.49,23.08-9.73,37.06-9.73s26.73,2.99,39.16,8.97v-15.85c-11.89-4.43-24.86-6.64-38.93-6.64Z"/>
  </g>
  <g>
    <polygon class="uuid-5c4c9c97-d6b7-4e73-8eae-386c8f94aebf" points="1252 455.5 1251.5 457.13 1206.5 603.7 1206.5 605.33 1206.25 604.51 1168.58 481.82 1161.19 505.76 1198 626.5 1214.5 626.5 1251.5 505.99 1266.5 457.13 1266.5 455.5 1252 455.5"/>
    <polygon class="uuid-5c4c9c97-d6b7-4e73-8eae-386c8f94aebf" points="1114.5 602.17 1114.5 602.07 1069.5 455.5 1054.5 455.5 1106.99 626.48 1114.5 602.17"/>
  </g>
  <g>
    <path class="uuid-5c4c9c97-d6b7-4e73-8eae-386c8f94aebf" d="m193.5,616c-39.72,0-72.63-29.66-77.78-68h-14.13c5.21,46.14,44.37,82,91.9,82,30.62,0,57.76-14.88,74.59-37.8l-11.51-8.04c-14.31,19.3-37.26,31.84-63.08,31.84Z"/>
    <path class="uuid-5c4c9c97-d6b7-4e73-8eae-386c8f94aebf" d="m115.85,526c5.58-37.85,38.27-67,77.65-67,27.55,0,51.82,14.28,65.83,35.81l11.59-7.94c-16.52-25.21-45.02-41.87-77.42-41.87-47.19,0-86.13,35.34-91.79,81h14.14Z"/>
  </g>
</svg>